<?xml version="1.0" standalone="yes"?>
<svg xmlns="http://www.w3.org/2000/svg" width="1600" height="1600">
<path style="fill:#000000; stroke:none;" d="M0 0L0 1600L1600 1600L1600 0L0 0z"/>
<path style="fill:#ffd15c; stroke:none;" d="M560 224L560 240L528 240L528 256L512 256L512 272L496 272L496 288L480 288L480 304L464 304L464 336L448 336L448 352L432 352L432 384L416 384L416 416L400 416L400 432L416 432L416 416L432 416L432 400L448 400L448 384L464 384L464 512L448 512L448 544L464 544L464 592L480 592L480 384L496 384L496 368L464 368L464 352L480 352L480 320L496 320L496 304L512 304L512 288L528 288L528 256L576 256L576 224L560 224z"/>
<path style="fill:#edb418; stroke:none;" d="M528 256L528 288L544 288L544 272L560 272L560 256L528 256M512 288L512 304L496 304L496 320L480 320L480 352L464 352L464 368L496 368L496 352L512 352L512 320L528 320L528 288L512 288M448 384L448 400L432 400L432 416L416 416L416 432L400 432L400 480L384 480L384 624L400 624L400 672L416 672L416 720L464 720L464 736L496 736L496 752L512 752L512 800L560 800L560 816L576 816L576 832L528 832L528 816L496 816L496 800L480 800L480 784L464 784L464 768L480 768L480 752L464 752L464 768L416 768L416 736L320 736L320 752L304 752L304 768L320 768L320 752L352 752L352 768L368 768L368 800L352 800L352 784L320 784L320 800L336 800L336 816L352 816L352 832L368 832L368 848L384 848L384 864L400 864L400 848L448 848L448 816L432 816L432 784L464 784L464 832L480 832L480 864L592 864L592 848L624 848L624 832L592 832L592 816L640 816L640 784L608 784L608 768L592 768L592 752L560 752L560 736L544 736L544 688L512 688L512 672L496 672L496 624L480 624L480 592L464 592L464 544L448 544L448 512L464 512L464 384L448 384z"/>
<path style="fill:#b991c7; stroke:none;" d="M768 672L768 704L784 704L784 672L768 672z"/>
<path style="fill:#cdabd9; stroke:none;" d="M784 688L784 704L768 704L768 736L752 736L752 768L736 768L736 832L624 832L624 864L608 864L608 880L656 880L656 896L688 896L688 912L720 912L720 928L704 928L704 976L688 976L688 1040L672 1040L672 1072L688 1072L688 1088L736 1088L736 1072L752 1072L752 1056L768 1056L768 1040L784 1040L784 1008L800 1008L800 992L816 992L816 1008L848 1008L848 1024L864 1024L864 1056L880 1056L880 1072L944 1072L944 1024L928 1024L928 976L896 976L896 944L880 944L880 928L912 928L912 896L960 896L960 880L976 880L976 864L960 864L960 848L944 848L944 832L848 832L848 816L832 816L832 768L816 768L816 736L800 736L800 688L784 688z"/>
<path style="fill:#dbae44; stroke:none;" d="M432 720L432 736L416 736L416 768L448 768L448 752L480 752L480 800L496 800L496 816L544 816L544 832L576 832L576 816L560 816L560 800L512 800L512 752L496 752L496 736L464 736L464 720L432 720z"/>
<path style="fill:#000000; stroke:none;" d="M432 736L432 752L448 752L448 736L432 736z"/>
<path style="fill:#ffd15c; stroke:none;" d="M320 752L320 784L352 784L352 800L368 800L368 768L352 768L352 752L320 752z"/>
<path style="fill:#000000; stroke:none;" d="M448 752L448 768L464 768L464 752L448 752z"/>
<path style="fill:#dbae44; stroke:none;" d="M304 768L304 816L320 816L320 832L336 832L336 848L352 848L352 864L368 864L368 880L432 880L432 896L528 896L528 912L576 912L576 896L640 896L640 880L608 880L608 864L464 864L464 848L400 848L400 864L384 864L384 848L368 848L368 832L352 832L352 816L336 816L336 800L320 800L320 768L304 768z"/>
<path style="fill:#000000; stroke:none;" d="M464 768L464 784L480 784L480 768L464 768z"/>
<path style="fill:#ffd15c; stroke:none;" d="M432 784L432 816L448 816L448 848L464 848L464 864L480 864L480 832L464 832L464 784L432 784z"/>
<path style="fill:#dbae44; stroke:none;" d="M576 800L576 816L592 816L592 800L576 800z"/>
<path style="fill:#b991c7; stroke:none;" d="M784 800L784 816L768 816L768 864L704 864L704 896L736 896L736 912L752 912L752 928L736 928L736 992L752 992L752 976L768 976L768 960L784 960L784 944L816 944L816 960L832 960L832 976L848 976L848 992L864 992L864 944L848 944L848 896L880 896L880 880L896 880L896 864L816 864L816 832L800 832L800 800L784 800z"/>
<path style="fill:#edb418; stroke:none;" d="M1248 800L1248 816L1216 816L1216 832L1200 832L1200 848L1184 848L1184 880L1168 880L1168 896L1152 896L1152 912L1168 912L1168 928L1184 928L1184 912L1200 912L1200 896L1216 896L1216 880L1232 880L1232 864L1248 864L1248 848L1264 848L1264 832L1280 832L1280 816L1264 816L1264 800L1248 800z"/>
<path style="fill:#ffd15c; stroke:none;" d="M1264 800L1264 816L1296 816L1296 800L1264 800z"/>
<path style="fill:#dbae44; stroke:none;" d="M368 816L368 832L384 832L384 848L400 848L400 832L384 832L384 816L368 816z"/>
<path style="fill:#000000; stroke:none;" d="M528 816L528 832L544 832L544 816L528 816z"/>
<path style="fill:#dbae44; stroke:none;" d="M592 816L592 832L624 832L624 816L592 816z"/>
<path style="fill:#edb418; stroke:none;" d="M1152 816L1152 832L1136 832L1136 848L1120 848L1120 896L1088 896L1088 912L1072 912L1072 944L1088 944L1088 928L1120 928L1120 912L1136 912L1136 880L1152 880L1152 864L1168 864L1168 816L1152 816z"/>
<path style="fill:#b991c7; stroke:none;" d="M592 848L592 864L624 864L624 848L592 848M960 848L960 864L992 864L992 848L960 848z"/>
<path style="fill:#f7e9f7; stroke:none;" d="M784 864L784 880L768 880L768 928L816 928L816 896L800 896L800 864L784 864z"/>
<path style="fill:#d9cad9; stroke:none;" d="M800 864L800 896L816 896L816 928L832 928L832 880L816 880L816 864L800 864z"/>
<path style="fill:#ffd15c; stroke:none;" d="M1104 864L1104 880L1072 880L1072 896L1040 896L1040 912L1008 912L1008 928L1056 928L1056 944L1072 944L1072 912L1088 912L1088 896L1120 896L1120 864L1104 864z"/>
<path style="fill:#dbae44; stroke:none;" d="M1152 864L1152 880L1136 880L1136 912L1120 912L1120 928L1088 928L1088 944L1056 944L1056 960L1040 960L1040 976L1072 976L1072 960L1104 960L1104 944L1136 944L1136 928L1152 928L1152 896L1168 896L1168 880L1184 880L1184 864L1152 864z"/>
<path style="fill:#edb418; stroke:none;" d="M640 880L640 896L576 896L576 912L608 912L608 944L592 944L592 976L576 976L576 960L512 960L512 944L480 944L480 960L464 960L464 976L432 976L432 992L416 992L416 1008L400 1008L400 1040L384 1040L384 1072L368 1072L368 1088L352 1088L352 1168L416 1168L416 1136L432 1136L432 1120L416 1120L416 1088L432 1088L432 1072L448 1072L448 1040L464 1040L464 1024L480 1024L480 976L496 976L496 992L624 992L624 1008L672 1008L672 992L688 992L688 976L640 976L640 960L656 960L656 928L672 928L672 912L688 912L688 928L720 928L720 912L688 912L688 896L656 896L656 880L640 880z"/>
<path style="fill:#000000; stroke:none;" d="M672 912L672 928L656 928L656 960L640 960L640 976L704 976L704 928L688 928L688 912L672 912z"/>
<path style="fill:#ffd15c; stroke:none;" d="M1152 912L1152 928L1136 928L1136 944L1120 944L1120 960L1072 960L1072 976L1120 976L1120 960L1152 960L1152 944L1168 944L1168 912L1152 912z"/>
<path style="fill:#edb418; stroke:none;" d="M976 928L976 944L896 944L896 976L928 976L928 992L1024 992L1024 976L1040 976L1040 960L1056 960L1056 928L976 928z"/>
<path style="fill:#dbae44; stroke:none;" d="M512 944L512 960L544 960L544 944L512 944z"/>
<path style="fill:#edb418; stroke:none;" d="M1104 944L1104 960L1120 960L1120 944L1104 944z"/>
<path style="fill:#dbae44; stroke:none;" d="M576 960L576 976L592 976L592 960L576 960z"/>
<path style="fill:#ffd15c; stroke:none;" d="M480 976L480 1024L512 1024L512 992L496 992L496 976L480 976M1024 976L1024 992L1072 992L1072 976L1024 976z"/>
<path style="fill:#dbae44; stroke:none;" d="M512 992L512 1024L544 1024L544 1040L528 1040L528 1056L512 1056L512 1072L496 1072L496 1088L480 1088L480 1104L464 1104L464 1120L480 1120L480 1104L512 1104L512 1088L528 1088L528 1072L544 1072L544 1056L560 1056L560 1024L544 1024L544 1008L576 1008L576 1024L608 1024L608 1008L624 1008L624 992L512 992z"/>
<path style="fill:#000000; stroke:none;" d="M544 1008L544 1024L560 1024L560 1008L544 1008z"/>
<path style="fill:#edb418; stroke:none;" d="M560 1008L560 1056L544 1056L544 1072L528 1072L528 1088L512 1088L512 1104L480 1104L480 1120L448 1120L448 1152L512 1152L512 1136L544 1136L544 1120L560 1120L560 1088L576 1088L576 1072L592 1072L592 1024L576 1024L576 1008L560 1008z"/>
<path style="fill:#000000; stroke:none;" d="M464 1024L464 1040L448 1040L448 1072L432 1072L432 1088L416 1088L416 1120L432 1120L432 1104L480 1104L480 1088L496 1088L496 1072L512 1072L512 1056L528 1056L528 1040L544 1040L544 1024L464 1024z"/>
<path style="fill:#b991c7; stroke:none;" d="M672 1072L672 1104L704 1104L704 1088L688 1088L688 1072L672 1072M928 1072L928 1088L944 1088L944 1104L960 1104L960 1072L928 1072z"/>
<path style="fill:#ffd15c; stroke:none;" d="M432 1104L432 1136L416 1136L416 1152L448 1152L448 1120L464 1120L464 1104L432 1104M352 1168L352 1184L400 1184L400 1168L352 1168z"/>
</svg>
